HIERARCHY
ROOT Hips
{
	OFFSET 0.00 0.00 0.00
	CHANNELS 6 Xposition Yposition Zposition Xrotation Yrotation Zrotation
	JOINT LeftUpLeg
	{
		OFFSET 3.64953 0.00000 0.00000
		CHANNELS 3 Xrotation Yrotation Zrotation
		JOINT LeftLeg
		{
			OFFSET 0.00000 -15.70580 0.00000
			CHANNELS 3 Xrotation Yrotation Zrotation
			JOINT LeftFoot
			{
				OFFSET 0.00000 -15.41867 0.00000
				CHANNELS 3 Xrotation Yrotation Zrotation
				JOINT LeftToeBase
				{
					OFFSET 0.00000 -1.53543 5.73033
					CHANNELS 3 Xrotation Yrotation Zrotation
					End Site
					{
						OFFSET 0.00000 0.00000 2.95275
					}
				}
			}
		}
	}
	JOINT RightUpLeg
	{
		OFFSET -3.64953 0.00000 0.00000
		CHANNELS 3 Xrotation Yrotation Zrotation
		JOINT RightLeg
		{
			OFFSET 0.00000 -15.70580 0.00000
			CHANNELS 3 Xrotation Yrotation Zrotation
			JOINT RightFoot
			{
				OFFSET 0.00000 -15.41867 0.00000
				CHANNELS 3 Xrotation Yrotation Zrotation
				JOINT RightToeBase
				{
					OFFSET 0.00000 -1.53543 5.73033
					CHANNELS 3 Xrotation Yrotation Zrotation
					End Site
					{
						OFFSET 0.00000 0.00000 2.95275
					}
				}
			}
		}
	}
	JOINT Spine
	{
		OFFSET 0.00000 0.03937 0.00000
		CHANNELS 3 Xrotation Yrotation Zrotation
		JOINT Spine1
		{
			OFFSET 0.00000 10.24829 0.00000
			CHANNELS 3 Xrotation Yrotation Zrotation
			JOINT Neck
			{
				OFFSET 0.00000 7.82687 0.00000
				CHANNELS 3 Xrotation Yrotation Zrotation
				JOINT Head
				{
					OFFSET 0.00000 6.90715 0.00000
					CHANNELS 3 Xrotation Yrotation Zrotation
					End Site
					{
						OFFSET 0.00000 4.52755 0.00000
					}
				}
			}
			JOINT LeftShoulder
			{
				OFFSET 0.00000 7.82687 0.00000
				CHANNELS 3 Xrotation Yrotation Zrotation
				JOINT LeftArm
				{
					OFFSET 6.71018 -0.00002 0.00000
					CHANNELS 3 Xrotation Yrotation Zrotation
					JOINT LeftForeArm
					{
						OFFSET 10.94419 -0.00004 0.00000
						CHANNELS 3 Xrotation Yrotation Zrotation
						JOINT LeftHand
						{
							OFFSET 8.52010 -0.00003 0.00000
							CHANNELS 3 Xrotation Yrotation Zrotation
							JOINT LeftHandThumb
							{
								OFFSET 0.00000 0.00000 0.00000
								CHANNELS 3 Xrotation Yrotation Zrotation
								End Site
								{
									OFFSET 0.00000 0.00000 3.93700
								}
							}
							JOINT L_Wrist_End
							{
								OFFSET 3.93700 -0.00001 0.00000
								CHANNELS 3 Xrotation Yrotation Zrotation
							}
						}
					}
				}
			}
			JOINT RightShoulder
			{
				OFFSET 0.00000 7.82687 0.00000
				CHANNELS 3 Xrotation Yrotation Zrotation
				JOINT RightArm
				{
					OFFSET -6.71018 -0.00002 0.00000
					CHANNELS 3 Xrotation Yrotation Zrotation
					JOINT RightForeArm
					{
						OFFSET -10.94419 -0.00004 0.00000
						CHANNELS 3 Xrotation Yrotation Zrotation
						JOINT RightHand
						{
							OFFSET -8.52010 -0.00003 0.00000
							CHANNELS 3 Xrotation Yrotation Zrotation
							JOINT RightHandThumb
							{
								OFFSET 0.00000 0.00000 0.00000
								CHANNELS 3 Xrotation Yrotation Zrotation
								End Site
								{
									OFFSET 0.00000 0.00000 3.93700
								}
							}
							JOINT R_Wrist_End
							{
								OFFSET -5.39369 -0.00002 0.00000
								CHANNELS 3 Xrotation Yrotation Zrotation
							}
						}
					}
				}
			}
		}
	}
}
MOTION
Frames: 19
Frame Time: 0.008333
 -4.6291 30.7190 0.0433 17.5721 4.4930 -4.9150 -44.3535 -9.3274 8.1935 44.5176 -0.0000 0.0000 -23.4127 -2.7806 -7.6407 -14.4449 0.0000 -0.0000 -41.1271 -12.3923 -2.4276 41.3634 -0.0000 0.0000 -33.9760 1.8965 0.3008 8.0380 -0.0000 0.0000 3.3052 2.4996 0.2104 16.2745 0.2745 0.0241 5.7321 11.1440 -5.6870 13.1917 -3.7335 5.5932 18.8426 9.0890 -2.9499 -23.4771 -41.4289 -73.6284 -0.0001 -23.1254 -0.0000 -12.8157 -4.2209 -7.1148 0.0000 -0.0000 -0.0000 0.0000 -0.0000 -0.0000 11.8980 -14.9969 2.1065 -7.7191 42.5813 66.1645 -0.0001 33.7247 0.0000 -28.4888 -2.2704 9.2579 -0.0000 -0.0000 -0.0000 -0.0000 -0.0000 -0.0000
 -4.6135 30.5024 -0.0534 17.9228 4.3755 -5.2476 -45.9431 -10.0995 8.0850 46.7861 -0.0000 0.0000 -24.3379 -2.2282 -6.9512 -14.4113 0.0000 -0.0000 -42.5816 -12.4879 -2.4250 43.2012 -0.0000 0.0000 -34.6815 1.6494 0.5818 8.0183 -0.0000 0.0000 3.4272 2.5402 0.2920 16.0021 0.3836 0.2567 5.2468 10.8688 -5.5694 12.2632 -3.3231 5.2484 18.8744 9.0201 -3.0000 -23.3746 -41.6429 -73.5808 -0.0001 -23.2681 -0.0000 -12.2974 -3.9380 -7.6796 0.0000 -0.0000 -0.0000 0.0000 -0.0000 -0.0000 11.9278 -14.8990 2.2720 -7.7268 42.4629 65.7561 -0.0001 33.4715 0.0000 -28.5467 -2.2966 9.1735 -0.0000 -0.0000 0.0000 -0.0000 -0.0000 0.0000
 -4.5990 30.2748 -0.1459 18.2540 4.2478 -5.5985 -47.4934 -10.8397 7.9983 49.0200 -0.0000 0.0000 -25.1839 -1.6627 -6.2726 -14.2591 0.0000 0.0000 -44.0229 -12.6527 -2.4343 45.0445 -0.0000 0.0000 -35.3897 1.4320 1.0237 8.2573 -0.0000 0.0000 3.5410 2.5846 0.3861 15.7656 0.4984 0.5008 4.7459 10.5763 -5.4626 11.2473 -2.9128 4.8672 18.9241 8.9432 -3.0688 -23.3006 -41.8834 -73.5114 -0.0001 -23.3877 -0.0000 -12.1474 -3.9797 -7.9530 0.0000 0.0000 0.0000 0.0000 0.0000 0.0000 11.9012 -14.8273 2.3796 -7.7993 42.3852 65.4567 -0.0001 33.1183 0.0000 -28.5803 -2.1971 9.1133 -0.0000 -0.0000 0.0000 -0.0000 -0.0000 0.0000
 -4.5837 30.0366 -0.2296 18.5525 4.1464 -5.9606 -49.0030 -11.5896 7.8878 51.2402 -0.0000 0.0000 -25.8999 -1.0174 -5.5884 -14.1172 0.0000 -0.0000 -45.4555 -12.9012 -2.4935 46.9733 -0.0000 0.0000 -36.1024 1.3977 1.4032 8.3581 -0.0000 0.0000 3.6624 2.6178 0.4702 15.5543 0.6096 0.7788 4.2006 10.2688 -5.3188 10.2067 -2.4846 4.4010 18.9951 8.8460 -3.1552 -23.2763 -42.0703 -73.4669 -0.0001 -23.4918 -0.0000 -12.0657 -4.1112 -8.1070 0.0000 -0.0000 0.0000 0.0000 -0.0000 0.0000 11.9216 -14.7225 2.5617 -7.8199 42.2588 65.0275 -0.0001 32.8648 0.0000 -28.4487 -2.3371 9.0656 0.0000 -0.0000 -0.0000 0.0000 -0.0000 -0.0000
 -4.5542 29.7892 -0.3065 18.7906 4.0340 -6.2940 -50.4318 -12.4185 7.6780 53.4644 -0.0000 0.0000 -26.5300 -0.1551 -5.1817 -14.0452 0.0000 0.0000 -46.8594 -13.1680 -2.6074 48.9615 -0.0000 0.0000 -36.8175 1.4517 1.4859 8.4586 -0.0000 0.0000 3.7926 2.6418 0.5525 15.3698 0.7142 1.0703 3.6576 10.0188 -5.2164 9.2361 -2.0198 4.0017 19.0077 8.7426 -3.2641 -23.2428 -42.3305 -73.4645 -0.0001 -23.4722 -0.0000 -12.0738 -4.2104 -8.1571 -0.0000 -0.0000 0.0000 -0.0000 -0.0000 0.0000 11.9682 -14.6583 2.7535 -7.9667 42.1329 64.6234 -0.0001 32.5145 0.0000 -28.4419 -2.3345 9.0264 -0.0000 0.0000 -0.0000 -0.0000 0.0000 -0.0000
 -4.5280 29.5345 -0.3787 19.0418 3.9085 -6.6592 -51.8579 -13.2261 7.5089 55.6327 -0.0000 0.0000 -27.1947 0.6186 -4.8827 -13.9103 0.0000 0.0000 -48.2256 -13.4047 -2.6881 50.8917 -0.0000 0.0000 -37.5647 1.4194 1.8443 8.4288 -0.0000 0.0000 3.9137 2.6746 0.6380 15.1751 0.8355 1.3921 3.0830 9.7431 -5.1481 8.2204 -1.5430 3.6333 19.0502 8.6209 -3.4031 -23.2221 -42.5860 -73.4316 -0.0001 -23.4683 -0.0000 -12.2296 -4.3722 -8.1312 0.0000 -0.0000 -0.0000 0.0000 -0.0000 -0.0000 11.9477 -14.5669 2.9250 -8.0365 41.9309 64.2231 -0.0001 32.2099 0.0000 -28.4281 -2.3355 8.9765 -0.0000 0.0000 -0.0000 -0.0000 0.0000 -0.0000
 -4.5032 29.2737 -0.4455 19.2897 3.7789 -7.0560 -53.2598 -14.0641 7.3498 57.7577 -0.0000 0.0000 -27.9316 1.3108 -4.7285 -13.6836 0.0000 0.0000 -49.5621 -13.6633 -2.7375 52.7952 -0.0000 0.0000 -38.2724 1.3924 2.2379 8.3917 -0.0000 0.0000 4.0144 2.7084 0.7244 14.9904 0.9710 1.7648 2.5383 9.4227 -5.1115 7.1224 -1.0190 3.2535 19.1334 8.4538 -3.5541 -23.2773 -42.8173 -73.4178 -0.0001 -23.3918 -0.0000 -12.4362 -4.6134 -8.1116 0.0000 0.0000 0.0000 0.0000 0.0000 0.0000 11.9515 -14.4509 3.0792 -8.1366 41.7186 63.8253 -0.0001 31.9029 0.0000 -28.3497 -2.3435 8.8798 -0.0000 -0.0000 0.0000 -0.0000 -0.0000 0.0000
 -4.4749 29.0065 -0.5041 19.4831 3.6236 -7.4816 -54.6070 -14.9074 7.2034 59.9048 -0.0000 0.0000 -28.7014 1.8833 -4.6611 -13.5346 0.0000 -0.0000 -50.7967 -13.8480 -2.7044 54.6489 -0.0000 0.0000 -38.9808 1.4031 2.3415 8.5083 0.0000 0.0000 4.1140 2.7440 0.8167 14.8514 1.1175 2.1728 1.9556 9.1061 -5.0647 6.0997 -0.4654 2.8986 19.1426 8.3117 -3.7241 -23.3311 -43.0757 -73.4500 -0.0001 -23.2707 -0.0000 -12.5663 -4.6662 -7.9578 0.0000 0.0000 -0.0000 0.0000 0.0000 -0.0000 11.9168 -14.3097 3.2238 -8.2689 41.4335 63.4494 -0.0001 31.5716 0.0000 -28.2512 -2.3709 8.7592 -0.0000 0.0000 0.0000 -0.0000 0.0000 0.0000
 -4.4448 28.7324 -0.5557 19.5783 3.4432 -7.8901 -55.8526 -15.6954 7.0605 62.0554 -0.0000 0.0000 -29.5564 2.3248 -4.5112 -13.3704 0.0000 -0.0000 -51.9213 -13.9835 -2.6405 56.4911 -0.0000 0.0000 -39.6734 1.4076 2.3986 8.5898 -0.0000 0.0000 4.2615 2.8009 0.8886 14.7258 1.2829 2.5814 1.4184 8.7752 -5.0374 5.0491 0.0851 2.6036 19.1805 8.1272 -3.8658 -23.4596 -43.3227 -73.5212 -0.0001 -23.0443 -0.0000 -12.7028 -4.8251 -7.8594 0.0000 0.0000 0.0000 0.0000 0.0000 0.0000 11.9269 -14.1482 3.3453 -8.4780 41.1510 63.1189 -0.0001 31.1938 0.0000 -28.1868 -2.3369 8.6779 0.0000 -0.0000 0.0000 0.0000 -0.0000 0.0000
 -4.4028 28.4552 -0.6015 19.7547 3.2537 -8.3558 -57.1981 -16.5425 6.8713 64.2610 -0.0000 0.0000 -30.4557 2.7181 -4.1435 -13.2925 0.0000 -0.0000 -53.0774 -14.2177 -2.5950 58.2499 -0.0000 0.0000 -40.3304 1.4059 2.3235 8.6343 -0.0000 0.0000 4.2920 2.8492 1.0281 14.5882 1.4497 3.0121 0.8681 8.4491 -5.0894 4.1656 0.6492 2.4447 19.2128 7.9155 -4.0675 -23.5682 -43.6175 -73.5673 -0.0001 -22.7905 -0.0000 -12.7271 -4.7489 -7.6519 0.0000 -0.0000 -0.0000 0.0000 -0.0000 -0.0000 11.9283 -13.9777 3.4543 -8.7017 40.8160 62.7882 -0.0001 30.8006 0.0000 -28.2072 -2.3046 8.4703 -0.0000 0.0000 -0.0000 -0.0000 0.0000 -0.0000
 -4.3580 28.1709 -0.6405 19.8767 3.0469 -8.8192 -58.4809 -17.3360 6.6876 66.4671 -0.0000 0.0000 -31.4235 3.0650 -3.6778 -13.2227 0.0000 0.0000 -54.1875 -14.4900 -2.5656 60.0183 -0.0000 0.0000 -40.8736 1.4429 2.3533 8.6743 0.0000 0.0000 4.3296 2.9083 1.1716 14.4767 1.6196 3.4190 0.3178 8.1549 -5.0966 3.2483 1.1750 2.2502 19.2823 7.7416 -4.2185 -23.8145 -43.9702 -73.6927 -0.0001 -22.4259 -0.0000 -12.8433 -4.8009 -7.6574 -0.0000 0.0000 0.0000 -0.0000 0.0000 0.0000 11.8402 -13.7679 3.4527 -8.9132 40.4764 62.5847 -0.0001 30.3345 0.0000 -28.1384 -2.2241 8.3647 -0.0000 0.0000 -0.0000 -0.0000 0.0000 -0.0000
 -4.3080 27.8794 -0.6700 19.9960 2.8601 -9.2721 -59.7522 -18.0542 6.4675 68.7074 -0.0000 0.0000 -32.6562 3.4311 -2.9379 -10.5114 0.0000 0.0000 -55.3130 -14.7875 -2.5780 61.8155 -0.0000 0.0000 -41.2356 1.5978 1.8479 7.8807 -0.0000 0.0000 4.3050 2.9798 1.3379 14.3969 1.7546 3.7674 -0.2459 7.2713 -5.0297 2.3057 2.2592 2.0105 19.3573 7.6256 -4.3218 -24.1394 -44.5021 -73.8628 -0.0001 -21.9552 -0.0000 -12.9277 -4.8014 -7.6773 0.0000 0.0000 0.0000 0.0000 0.0000 0.0000 11.9786 -13.5964 3.5557 -9.3396 40.2829 62.3365 -0.0001 29.7765 0.0000 -28.0851 -2.1748 8.3596 -0.0000 0.0000 0.0000 -0.0000 0.0000 0.0000
 -4.2369 27.5802 -0.6876 19.9295 2.7664 -9.6085 -60.8279 -18.7606 6.0174 70.8892 -0.0000 0.0000 -33.6437 4.0012 -2.4906 -10.5777 0.0000 0.0000 -56.2840 -14.9985 -2.7859 63.6818 -0.0000 0.0000 -41.8173 1.7106 1.8578 7.7589 -0.0000 0.0000 4.4750 2.9879 1.4935 14.1940 1.8306 4.0298 -0.6039 7.2202 -5.0125 1.3528 2.5345 1.9036 19.3305 7.5070 -4.2997 -24.3308 -45.0666 -74.1542 -0.0001 -21.4050 -0.0000 -13.1817 -4.8418 -7.6643 -0.0000 -0.0000 0.0000 -0.0000 -0.0000 0.0000 12.0221 -13.3993 3.6089 -9.5893 40.0676 62.1049 -0.0001 29.1798 0.0000 -27.7363 -1.9745 8.3854 -0.0000 -0.0000 0.0000 -0.0000 -0.0000 0.0000
 -4.2373 27.3030 -0.6973 20.1217 2.5195 -10.7585 -62.0399 -19.9564 6.4229 73.0625 -0.0000 0.0000 -34.4757 4.1956 -2.2944 -10.7060 0.0000 -0.0000 -57.1030 -15.7848 -2.1504 65.1111 -0.0000 0.0000 -42.1700 1.6126 1.5179 7.6850 -0.0000 0.0000 4.2717 3.0414 1.9290 14.1406 2.1130 4.8908 -1.2683 6.3721 -5.0354 0.7001 3.7039 1.6463 19.4492 7.3790 -4.6926 -24.4695 -45.8638 -73.9681 -0.0001 -21.0578 -0.0000 -13.3480 -4.7278 -7.8385 0.0000 0.0000 0.0000 0.0000 0.0000 0.0000 11.9294 -13.1365 3.6023 -9.7229 39.9642 61.6723 -0.0001 28.6232 0.0000 -28.1143 -2.0858 8.2222 0.0000 -0.0000 -0.0000 0.0000 -0.0000 -0.0000
 -4.1878 27.0196 -0.6965 20.1242 2.2416 -11.4600 -62.9973 -20.8389 6.4279 75.1138 0.0000 0.0000 -35.2878 4.8102 -1.9300 -10.8559 0.0000 -0.0000 -57.8844 -16.1894 -1.9027 66.6641 -0.0000 0.0000 -42.6995 1.5902 1.5724 7.7061 -0.0000 0.0000 4.2878 3.1104 2.1441 13.9137 2.3334 5.5697 -1.7392 5.8110 -5.1282 0.0307 4.5699 1.4786 19.5888 7.2720 -5.1534 -24.0951 -47.2268 -73.3881 -0.0001 -20.9358 -0.0000 -13.9899 -4.3980 -7.6892 0.0000 0.0000 0.0000 0.0000 0.0000 0.0000 11.8746 -12.9236 3.6124 -9.7541 39.9338 61.1586 -0.0001 27.9771 0.0000 -28.1037 -2.0913 8.2694 0.0000 0.0000 -0.0000 0.0000 0.0000 -0.0000
 -4.1394 26.7415 -0.6859 20.1053 1.9813 -12.2090 -63.8698 -21.7122 6.4725 77.1084 -0.0000 0.0000 -36.0812 5.5191 -1.5474 -10.9807 0.0000 -0.0000 -58.5710 -16.5949 -1.6107 68.1687 -0.0000 0.0000 -43.2437 1.5641 1.4978 7.7197 -0.0000 0.0000 4.2722 3.1759 2.3590 13.6814 2.5638 6.2981 -2.1122 5.3671 -5.2014 -0.6795 5.2826 1.3409 19.6202 7.0896 -5.4137 -24.1497 -48.0844 -73.3766 -0.0001 -20.3940 -0.0000 -13.9714 -4.1645 -7.8117 0.0000 -0.0000 -0.0000 0.0000 -0.0000 -0.0000 11.8138 -12.6908 3.6312 -9.7740 39.8904 60.6258 -0.0001 27.2946 0.0000 -28.0056 -2.1962 8.3491 -0.0000 -0.0000 -0.0000 -0.0000 -0.0000 -0.0000
 -4.0870 26.4709 -0.6680 20.0432 1.6859 -12.9277 -64.6290 -22.5191 6.5468 79.0286 -0.0000 0.0000 -36.8851 6.2793 -1.1737 -10.9697 0.0000 -0.0000 -59.1595 -16.9398 -1.2890 69.5843 -0.0000 0.0000 -43.8307 1.5240 1.5064 7.6162 -0.0000 0.0000 4.2719 3.2645 2.5163 13.4260 2.8164 7.0303 -2.4735 5.0665 -5.2708 -1.3311 5.8143 1.3502 19.6035 6.9607 -5.5938 -24.3832 -48.9169 -73.6076 -0.0001 -19.7350 -0.0000 -13.8118 -3.9038 -8.1026 0.0000 0.0000 0.0000 0.0000 0.0000 0.0000 11.7752 -12.4718 3.7441 -9.6786 39.9641 59.8990 -0.0001 26.6027 0.0000 -27.9740 -2.3205 8.5141 0.0000 0.0000 0.0000 0.0000 0.0000 0.0000
 -4.0321 26.2137 -0.6398 19.9182 1.3629 -13.6112 -65.2445 -23.2282 6.6503 80.8512 -0.0000 0.0000 -37.6621 7.0926 -0.5305 -10.6321 0.0000 -0.0000 -59.6258 -17.2178 -0.9423 70.9288 -0.0000 0.0000 -44.4432 1.4469 1.6195 7.6453 0.0000 0.0000 4.2397 3.3391 2.6052 13.2863 3.0545 7.7509 -2.9200 4.9271 -5.3166 -1.8361 6.1859 1.4776 19.4903 6.9330 -5.7724 -24.6180 -49.8392 -73.8557 -0.0001 -19.0137 -0.0000 -13.2824 -3.7869 -8.2383 -0.0000 0.0000 -0.0000 -0.0000 0.0000 -0.0000 11.8253 -12.1806 3.9785 -9.6800 40.0522 59.0392 -0.0001 25.9121 0.0000 -27.7951 -2.5882 8.8368 -0.0000 0.0000 -0.0000 -0.0000 0.0000 -0.0000
 -3.9658 25.9669 -0.5962 19.6605 1.0763 -14.2366 -65.6541 -23.8614 6.7143 82.5946 -0.0000 0.0000 -38.4006 7.8934 -0.2195 -10.5554 -0.0000 0.0000 -59.8935 -17.4970 -0.6688 72.1914 -0.0000 0.0000 -45.0240 1.4356 1.6361 7.5166 -0.0000 0.0000 4.2319 3.4330 2.6495 13.2217 3.3045 8.4308 -3.2706 4.7997 -5.2140 -2.3746 6.4036 1.5055 19.4519 6.8261 -5.8757 -24.9251 -50.6756 -74.1224 -0.0001 -18.4884 -0.0000 -12.8206 -3.3205 -8.5252 0.0000 -0.0000 0.0000 0.0000 -0.0000 0.0000 11.8607 -11.8753 4.2662 -9.6037 40.2079 58.0912 -0.0001 25.0988 0.0000 -27.8589 -2.5987 9.0621 0.0000 0.0000 0.0000 0.0000 0.0000 0.0000
